<svg width="236" height="129" viewBox="0 0 236 129" fill="none" xmlns="http://www.w3.org/2000/svg">
<path d="M76.4214 160.623C63.2601 160.623 50.9214 157.435 39.4053 151.06C27.8891 144.685 18.5323 135.534 11.3347 123.607C4.34276 111.474 0.846788 97.1812 0.846788 80.7296C0.846788 64.278 4.34276 50.0885 11.3347 38.1611C18.5323 26.028 27.8891 16.6711 39.4053 10.0905C50.9214 3.50985 63.2601 0.219522 76.4214 0.219522C89.5827 0.219522 101.819 3.50985 113.129 10.0905C124.645 16.6711 133.899 26.028 140.891 38.1611C147.883 50.0885 151.379 64.278 151.379 80.7296C151.379 97.1812 147.883 111.474 140.891 123.607C133.899 135.534 124.645 144.685 113.129 151.06C101.819 157.435 89.5827 160.623 76.4214 160.623ZM76.4214 136.871C84.8528 136.871 92.873 134.711 100.482 130.393C108.091 126.074 114.363 119.699 119.298 111.268C124.234 102.836 126.702 92.657 126.702 80.7296C126.702 68.8022 124.234 58.6228 119.298 50.1913C114.569 41.7599 108.296 35.282 100.482 30.7578C92.873 26.2336 84.8528 23.9715 76.4214 23.9715C67.9899 23.9715 59.867 26.2336 52.0524 30.7578C44.2379 35.0764 37.8629 41.4514 32.9274 49.8828C27.992 58.3143 25.5242 68.5965 25.5242 80.7296C25.5242 92.657 27.992 102.836 32.9274 111.268C37.8629 119.699 44.2379 126.074 52.0524 130.393C59.867 134.711 67.9899 136.871 76.4214 136.871ZM174.48 26.4393V3.30421H235.249V157.538H210.571V26.4393H174.48Z" fill="url(#paint0_linear_56_158)"/>
<defs>
<linearGradient id="paint0_linear_56_158" x1="110.54" y1="1.01031" x2="98.2698" y2="181.483" gradientUnits="userSpaceOnUse">
<stop stop-color="#0147FF"/>
<stop offset="1" stop-color="#0147FF" stop-opacity="0"/>
</linearGradient>
</defs>
</svg>
