<svg width="294" height="129" viewBox="0 0 294 129" fill="none" xmlns="http://www.w3.org/2000/svg">
<path d="M76.2036 160.623C63.0423 160.623 50.7036 157.435 39.1875 151.06C27.6714 144.685 18.3145 135.534 11.1169 123.607C4.12498 111.474 0.629015 97.1812 0.629015 80.7296C0.629015 64.278 4.12498 50.0885 11.1169 38.1611C18.3145 26.028 27.6714 16.6711 39.1875 10.0905C50.7036 3.50985 63.0423 0.219522 76.2036 0.219522C89.3649 0.219522 101.601 3.50985 112.911 10.0905C124.427 16.6711 133.681 26.028 140.673 38.1611C147.665 50.0885 151.161 64.278 151.161 80.7296C151.161 97.1812 147.665 111.474 140.673 123.607C133.681 135.534 124.427 144.685 112.911 151.06C101.601 157.435 89.3649 160.623 76.2036 160.623ZM76.2036 136.871C84.6351 136.871 92.6552 134.711 100.264 130.393C107.873 126.074 114.145 119.699 119.081 111.268C124.016 102.836 126.484 92.657 126.484 80.7296C126.484 68.8022 124.016 58.6228 119.081 50.1913C114.351 41.7599 108.079 35.282 100.264 30.7578C92.6552 26.2336 84.6351 23.9715 76.2036 23.9715C67.7722 23.9715 59.6492 26.2336 51.8347 30.7578C44.0201 35.0764 37.6451 41.4514 32.7097 49.8828C27.7742 58.3143 25.3064 68.5965 25.3064 80.7296C25.3064 92.657 27.7742 102.836 32.7097 111.268C37.6451 119.699 44.0201 126.074 51.8347 130.393C59.6492 134.711 67.7722 136.871 76.2036 136.871ZM246.753 110.959L205.418 140.881L203.259 134.403H293.948V157.538H179.815V134.403C193.182 124.326 205.007 115.792 215.289 108.8C225.777 101.808 234.619 95.5361 241.817 89.9836C249.015 84.4312 254.464 78.776 258.166 73.0179C262.073 67.2599 264.027 60.5764 264.027 52.9675C264.027 47.2095 262.896 42.1711 260.634 37.8526C258.371 33.3284 254.876 29.8324 250.146 27.3647C245.621 24.6913 239.658 23.3546 232.255 23.3546C223.206 23.3546 215.392 26.2336 208.811 31.9917C202.23 37.7498 198.94 45.2558 198.94 54.5099H177.347C176.319 44.2276 178.17 35.0764 182.9 27.0562C187.835 18.8304 194.621 12.3526 203.259 7.62275C212.101 2.68727 221.767 0.219522 232.255 0.219522C241.303 0.219522 249.323 1.65904 256.315 4.53808C263.307 7.21147 269.168 10.9131 273.898 15.6429C278.833 20.3728 282.535 25.8224 285.003 31.9917C287.47 38.1611 288.704 44.6389 288.704 51.4252C288.704 57.5945 287.676 63.2498 285.619 68.3909C283.769 73.532 280.992 78.4675 277.291 83.1974C273.795 87.9272 269.476 92.5542 264.335 97.0784C259.194 101.603 253.333 106.23 246.753 110.959Z" fill="url(#paint0_linear_56_159)"/>
<defs>
<linearGradient id="paint0_linear_56_159" x1="145.691" y1="-1.04525" x2="129.56" y2="175.481" gradientUnits="userSpaceOnUse">
<stop stop-color="#0147FF"/>
<stop offset="1" stop-color="#0147FF" stop-opacity="0"/>
</linearGradient>
</defs>
</svg>
