<svg width="296" height="130" viewBox="0 0 296 130" fill="none" xmlns="http://www.w3.org/2000/svg">
<path d="M75.9577 161.345C62.7964 161.345 50.4577 158.157 38.9416 151.782C27.4254 145.407 18.0686 136.256 10.871 124.329C3.87907 112.195 0.383104 97.9032 0.383104 81.4515C0.383104 64.9999 3.87907 50.8104 10.871 38.883C18.0686 26.7499 27.4254 17.3931 38.9416 10.8124C50.4577 4.23177 62.7964 0.941445 75.9577 0.941445C89.119 0.941445 101.355 4.23177 112.665 10.8124C124.182 17.3931 133.436 26.7499 140.427 38.883C147.419 50.8104 150.915 64.9999 150.915 81.4515C150.915 97.9032 147.419 112.195 140.427 124.329C133.436 136.256 124.182 145.407 112.665 151.782C101.355 158.157 89.119 161.345 75.9577 161.345ZM75.9577 137.593C84.3892 137.593 92.4093 135.433 100.018 131.115C107.627 126.796 113.899 120.421 118.835 111.99C123.77 103.558 126.238 93.379 126.238 81.4515C126.238 69.5241 123.77 59.3447 118.835 50.9132C114.105 42.4818 107.833 36.004 100.018 31.4798C92.4093 26.9556 84.3892 24.6935 75.9577 24.6935C67.5263 24.6935 59.4033 26.9556 51.5888 31.4798C43.7742 35.7983 37.3992 42.1733 32.4638 50.6048C27.5283 59.0362 25.0605 69.3185 25.0605 81.4515C25.0605 93.379 27.5283 103.558 32.4638 111.99C37.3992 120.421 43.7742 126.796 51.5888 131.115C59.4033 135.433 67.5263 137.593 75.9577 137.593ZM240.646 99.6511L240.954 98.1088C248.769 98.7257 255.966 100.062 262.547 102.119C269.128 104.175 274.886 107.26 279.821 111.373C284.757 115.28 288.561 120.421 291.234 126.796C293.908 133.171 295.245 140.883 295.245 149.931C295.245 160.419 292.777 169.982 287.841 178.619C282.906 187.462 275.914 194.454 266.865 199.595C258.023 204.941 247.638 207.615 235.71 207.615C224.605 207.615 214.426 204.941 205.172 199.595C196.124 194.454 189.029 187.462 183.888 178.619C178.952 169.982 176.999 160.419 178.027 149.931H199.62C199.62 156.512 201.059 162.373 203.938 167.514C206.817 172.861 210.93 177.077 216.277 180.161C221.624 183.246 228.101 184.788 235.71 184.788C246.404 184.788 254.835 181.498 261.005 174.917C267.38 168.337 270.567 159.597 270.567 148.698C270.567 137.798 267.071 128.956 260.079 122.169C253.293 115.383 243.936 111.99 232.009 111.99H214.426V89.1632H232.009C239.823 89.1632 246.404 87.8265 251.751 85.1531C257.097 82.2741 261.107 78.264 263.781 73.1229C266.454 67.9818 267.791 62.1209 267.791 55.5403C267.791 46.2862 265.015 38.7802 259.462 33.0221C254.115 27.0584 245.993 24.0765 235.093 24.0765C226.045 24.0765 218.333 27.0584 211.958 33.0221C205.583 38.7802 202.396 46.2862 202.396 55.5403H180.803C179.98 47.9314 180.803 40.8366 183.271 34.256C185.944 27.6753 189.851 21.9173 194.993 16.9818C200.134 11.8406 206.097 7.93339 212.884 5.26C219.876 2.38096 227.279 0.941445 235.093 0.941445C246.609 0.941445 256.686 3.40919 265.323 8.34468C273.96 13.0745 280.644 19.5523 285.374 27.7782C290.103 36.004 292.468 45.258 292.468 55.5403C292.468 63.9717 291.132 71.0665 288.458 76.8245C285.99 82.3769 282.392 86.7983 277.662 90.0886C273.138 93.379 267.688 95.7439 261.313 97.1834C254.938 98.6229 248.049 99.4455 240.646 99.6511Z" fill="url(#paint0_linear_56_160)"/>
<defs>
<linearGradient id="paint0_linear_56_160" x1="135.158" y1="4.81556" x2="123.965" y2="193.751" gradientUnits="userSpaceOnUse">
<stop stop-color="#0147FF"/>
<stop offset="1" stop-color="#0147FF" stop-opacity="0"/>
</linearGradient>
</defs>
</svg>
