<svg width="319" height="130" viewBox="0 0 319 130" fill="none" xmlns="http://www.w3.org/2000/svg">
<path d="M76.0342 161.345C62.873 161.345 50.5342 158.157 39.0181 151.782C27.502 145.407 18.1451 136.256 10.9475 124.329C3.95561 112.195 0.459642 97.9032 0.459642 81.4515C0.459642 64.9999 3.95561 50.8104 10.9475 38.883C18.1451 26.7499 27.502 17.3931 39.0181 10.8124C50.5342 4.23177 62.873 0.941445 76.0342 0.941445C89.1955 0.941445 101.431 4.23177 112.742 10.8124C124.258 17.3931 133.512 26.7499 140.504 38.883C147.496 50.8104 150.992 64.9999 150.992 81.4515C150.992 97.9032 147.496 112.195 140.504 124.329C133.512 136.256 124.258 145.407 112.742 151.782C101.431 158.157 89.1955 161.345 76.0342 161.345ZM76.0342 137.593C84.4657 137.593 92.4859 135.433 100.095 131.115C107.704 126.796 113.976 120.421 118.911 111.99C123.847 103.558 126.314 93.379 126.314 81.4515C126.314 69.5241 123.847 59.3447 118.911 50.9132C114.181 42.4818 107.909 36.004 100.095 31.4798C92.4859 26.9556 84.4657 24.6935 76.0342 24.6935C67.6028 24.6935 59.4798 26.9556 51.6653 31.4798C43.8508 35.7983 37.4758 42.1733 32.5403 50.6048C27.6048 59.0362 25.1371 69.3185 25.1371 81.4515C25.1371 93.379 27.6048 103.558 32.5403 111.99C37.4758 120.421 43.8508 126.796 51.6653 131.115C59.4798 135.433 67.6028 137.593 76.0342 137.593ZM289.769 2.4838V202.988H265.091V33.0221L270.952 34.8729L201.547 144.379L196.303 135.125H270.027V158.26H180.263V135.125L265.091 2.4838H289.769ZM284.833 158.26V135.125H318.148V158.26H284.833Z" fill="url(#paint0_linear_56_161)"/>
<defs>
<linearGradient id="paint0_linear_56_161" x1="146.681" y1="4.81557" x2="145.66" y2="187.754" gradientUnits="userSpaceOnUse">
<stop stop-color="#0147FF"/>
<stop offset="1" stop-color="#0147FF" stop-opacity="0"/>
</linearGradient>
</defs>
</svg>
