<svg width="416" height="416" viewBox="0 0 416 416" fill="none" xmlns="http://www.w3.org/2000/svg">
<path fill-rule="evenodd" clip-rule="evenodd" d="M415.327 222.602L415.327 192.942L284 192.942L405.765 143.746L394.654 116.245L269.734 166.716L365.003 71.4474L344.03 50.4744L252.719 141.785L304.419 23.4534L277.24 11.5784L222.535 136.787L222.535 0.14965L192.875 0.149648L192.875 136.787L138.17 11.5784L110.99 23.4534L162.69 141.785L71.3801 50.4744L50.4082 71.4474L145.676 166.716L20.7556 116.245L9.64574 143.746L131.41 192.942L0.0826274 192.942L0.0826261 222.602L131.41 222.602L9.64573 271.799L20.7556 299.298L145.676 248.829L50.4082 344.097L71.3801 365.069L162.69 273.759L110.99 392.091L138.17 403.965L192.875 278.758L192.875 415.394L222.535 415.394L222.535 278.756L277.24 403.965L304.419 392.091L252.719 273.759L344.03 365.069L365.003 344.097L269.735 248.829L394.654 299.298L405.765 271.799L284 222.602L415.327 222.602Z" fill="url(#paint0_linear_56_200)"/>
<defs>
<linearGradient id="paint0_linear_56_200" x1="415.327" y1="207.772" x2="-80.3756" y2="175.563" gradientUnits="userSpaceOnUse">
<stop stop-color="#0147FF"/>
<stop offset="1" stop-color="#0147FF" stop-opacity="0"/>
</linearGradient>
</defs>
</svg>
