<svg width="183" height="183" viewBox="0 0 183 183" fill="none" xmlns="http://www.w3.org/2000/svg">
<path fill-rule="evenodd" clip-rule="evenodd" d="M183 98.0358L183 84.9642L125.123 84.9642L178.786 63.2833L173.889 51.1637L118.837 73.4063L160.822 31.4212L151.579 22.1783L111.338 62.4192L134.122 10.27L122.144 5.0367L98.0358 60.2166L98.0358 -3.7139e-06L84.9642 -4.28528e-06L84.9642 60.2165L60.8558 5.03671L48.8775 10.27L71.6619 62.4191L31.4211 22.1783L22.1787 31.4212L64.1635 73.4063L9.11068 51.1637L4.21452 63.2833L57.8765 84.9642L2.24525e-05 84.9642L2.18812e-05 98.0358L57.8765 98.0358L4.21451 119.717L9.11068 131.836L64.1635 109.594L22.1787 151.579L31.4211 160.821L71.6619 120.581L48.8775 172.73L60.8558 177.963L84.9642 122.784L84.9642 183L98.0358 183L98.0358 122.783L122.144 177.963L134.122 172.73L111.338 120.581L151.579 160.821L160.822 151.579L118.837 109.594L173.889 131.836L178.786 119.717L125.123 98.0358L183 98.0358Z" fill="#DEDEE0"/>
</svg>
