<svg width="553" height="545" viewBox="0 0 553 545" fill="none" xmlns="http://www.w3.org/2000/svg">
<path d="M43.07 125.994L88.1218 301.703C90.4019 310.76 81.1134 318.322 72.8508 314.621L36.8102 298.399C31.1444 296.036 24.533 298.4 22.1707 304.07L0.910052 351.012C-1.45238 356.683 0.906877 363.299 6.57271 365.661L172.139 440.156C180.795 443.936 180.871 455.829 172.607 460.319L137.502 478.278C131.992 481.272 129.866 487.809 132.855 493.322L156.454 539C159.443 544.513 165.974 546.639 171.484 543.646L332.604 460.387C340.868 455.897 350.468 463.142 348.577 472.594L340.776 511.58C339.594 517.487 343.291 523.551 349.587 524.811L399.953 534.889C405.855 536.07 411.916 532.368 413.176 526.067L448.793 348.068C450.605 339.011 462.253 336.017 468.233 342.948L493.724 373.032C497.658 377.915 504.505 378.466 509.385 374.528L548.743 341.446C553.624 337.508 554.176 330.656 550.243 325.773L433.565 186.928C427.664 179.604 432.31 168.656 441.754 168.498L481.262 167.393C487.4 167.392 492.124 162.194 492.125 156.051L490.564 104.542C490.565 98.3989 485.372 93.6736 479.234 93.674L297.75 98.7267C288.306 98.8849 283.036 88.4102 288.625 80.9277L312.558 49.2649C316.416 44.3028 315.315 37.5296 310.358 33.6707L269.127 2.48475C264.17 -1.37413 257.401 -0.271017 253.544 4.69108L144.351 149.537C138.762 157.019 126.957 154.657 124.677 145.6L114.77 107.166C113.119 101.102 107.296 97.4792 101.236 99.1336L51.1796 112.053C45.0405 114.102 41.8123 120.009 43.07 125.994ZM195.493 204.822L254.616 126.138C260.835 117.553 274.292 121.883 274.604 132.595L275.62 162.287C275.618 168.43 280.811 173.155 286.95 173.155L385.326 170.313C396.029 169.997 400.748 183.229 392.876 189.845L370.206 209.064C365.325 213.002 364.773 219.854 368.706 224.737L432.199 300.105C439.201 308.059 431.8 320.504 421.57 318.457L392.452 312.631C386.55 311.45 380.489 315.152 379.228 321.452L359.923 417.934C357.874 428.173 343.944 430.3 338.91 420.692L324.907 394.545C321.918 389.032 315.387 386.906 309.877 389.899L222.745 434.719C213.221 439.366 203.228 429.994 207.638 420.228L220 393.213C222.363 387.542 220.004 380.926 214.338 378.564L124.63 338.088C114.872 333.678 116.056 319.58 126.366 317.138L155.251 309.811C161.311 308.157 164.933 302.328 163.282 296.264L138.987 200.888C136.55 190.571 147.963 182.615 156.461 189.23L180.303 207.107C184.945 210.494 191.635 209.784 195.493 204.822Z" fill="url(#paint0_linear_2009_1010)"/>
<defs>
<linearGradient id="paint0_linear_2009_1010" x1="552.843" y1="272.585" x2="-107.037" y2="229.078" gradientUnits="userSpaceOnUse">
<stop stop-color="#0147FF"/>
<stop offset="1" stop-color="#0147FF" stop-opacity="0"/>
</linearGradient>
</defs>
</svg>
