<svg width="354" height="45" viewBox="0 0 354 45" fill="none" xmlns="http://www.w3.org/2000/svg">
<path d="M53.044 24.7573H56.9153C56.9918 25.4073 57.2881 26 57.8043 26.5353C58.3396 27.0514 59.0374 27.4625 59.8977 27.7683C60.758 28.0551 61.7234 28.1985 62.794 28.1985C63.769 28.1985 64.5719 28.0933 65.2028 27.8831C65.8337 27.6728 66.3021 27.3764 66.608 26.9941C66.9138 26.6117 67.0668 26.1529 67.0668 25.6176C67.0668 25.1014 66.8756 24.7095 66.4933 24.4419C66.1109 24.1551 65.5087 23.9257 64.6866 23.7536C63.8646 23.5625 62.7844 23.3713 61.4462 23.1801C60.3947 23.0272 59.4006 22.8169 58.4638 22.5492C57.5271 22.2625 56.6954 21.8992 55.969 21.4595C55.2616 21.0198 54.6976 20.4845 54.2771 19.8536C53.8756 19.2036 53.6749 18.4389 53.6749 17.5595C53.6749 16.4698 53.9807 15.5139 54.5925 14.6919C55.2234 13.8698 56.1506 13.2294 57.3741 12.7705C58.5977 12.3117 60.0984 12.0823 61.8763 12.0823C64.5528 12.0823 66.608 12.6558 68.0418 13.8029C69.4947 14.9308 70.2021 16.4889 70.1638 18.4772H66.4359C66.3594 17.3492 65.8815 16.5367 65.0021 16.0397C64.1418 15.5426 63.0521 15.2941 61.733 15.2941C60.5094 15.2941 59.4962 15.4757 58.6932 15.8389C57.9094 16.2022 57.5175 16.8235 57.5175 17.7029C57.5175 18.047 57.6131 18.3529 57.8043 18.6205C57.9954 18.8691 58.3204 19.0889 58.7793 19.2801C59.2381 19.4713 59.8594 19.6529 60.6432 19.825C61.4271 19.997 62.4021 20.1691 63.5682 20.3411C64.658 20.4941 65.6425 20.7044 66.5219 20.972C67.4205 21.2205 68.1852 21.5551 68.816 21.9757C69.466 22.3772 69.9631 22.8933 70.3072 23.5242C70.6513 24.1551 70.8234 24.9294 70.8234 25.847C70.8234 26.975 70.5271 27.9595 69.9344 28.8007C69.3609 29.6228 68.4624 30.2632 67.2388 30.722C66.0344 31.1808 64.4668 31.4103 62.5359 31.4103C61.1594 31.4103 59.9454 31.2669 58.894 30.9801C57.8425 30.6742 56.9344 30.2728 56.1697 29.7757C55.405 29.2786 54.7837 28.7338 54.3057 28.1411C53.8278 27.5485 53.4837 26.9558 53.2734 26.3632C53.0822 25.7705 53.0057 25.2353 53.044 24.7573ZM84.0816 31.3529C82.8198 31.3529 81.7397 31.1331 80.8411 30.6933C79.9617 30.2345 79.2448 29.6419 78.6904 28.9154C78.136 28.1698 77.725 27.3573 77.4573 26.4779C77.1897 25.5985 77.0558 24.7382 77.0558 23.897C77.0558 22.8455 77.1801 21.8705 77.4286 20.972C77.6963 20.0735 78.1073 19.2897 78.6617 18.6205C79.2161 17.9323 79.933 17.397 80.8125 17.0147C81.711 16.6323 82.8007 16.4411 84.0816 16.4411C85.5154 16.4411 86.8058 16.7566 87.9529 17.3874C89.1 18.0183 90.0081 18.8977 90.6772 20.0257C91.3654 21.1345 91.7095 22.425 91.7095 23.897C91.7095 25.4073 91.3654 26.7264 90.6772 27.8544C89.9889 28.9632 89.0713 29.8235 87.9242 30.4353C86.7772 31.047 85.4963 31.3529 84.0816 31.3529ZM82.8772 28.4566C83.8904 28.4566 84.7698 28.2654 85.5154 27.8831C86.2801 27.5007 86.8632 26.975 87.2647 26.3058C87.6853 25.6176 87.8956 24.8147 87.8956 23.897C87.8956 22.5205 87.4558 21.4117 86.5764 20.5705C85.7161 19.7294 84.4831 19.3088 82.8772 19.3088C81.8639 19.3088 80.9367 19.4904 80.0955 19.8536C79.2735 20.2169 78.6235 20.7426 78.1455 21.4308C77.6676 22.1 77.4286 22.922 77.4286 23.897C77.4286 24.8147 77.6485 25.6176 78.0882 26.3058C78.5279 26.975 79.1588 27.5007 79.9808 27.8831C80.8029 28.2654 81.7683 28.4566 82.8772 28.4566ZM73.7007 16.7566H77.2566L77.4286 20.5419V36.7441H73.7007V16.7566ZM107.442 26.2772H111.056C110.903 27.2522 110.492 28.122 109.823 28.8867C109.173 29.6514 108.284 30.2536 107.156 30.6933C106.028 31.1331 104.651 31.3529 103.026 31.3529C101.21 31.3529 99.6042 31.0661 98.2086 30.4926C96.813 29.9 95.7233 29.0492 94.9394 27.9404C94.1556 26.8316 93.7637 25.4933 93.7637 23.9257C93.7637 22.358 94.1461 21.0198 94.9108 19.911C95.6755 18.783 96.7365 17.9227 98.0939 17.3301C99.4703 16.7374 101.076 16.4411 102.912 16.4411C104.785 16.4411 106.343 16.7374 107.586 17.3301C108.828 17.9227 109.746 18.8213 110.339 20.0257C110.95 21.211 111.209 22.7308 111.113 24.5853H97.5203C97.6159 25.3117 97.8836 25.9713 98.3233 26.5639C98.7821 27.1566 99.3939 27.625 100.159 27.9691C100.942 28.3132 101.87 28.4853 102.94 28.4853C104.125 28.4853 105.11 28.2845 105.894 27.8831C106.697 27.4625 107.213 26.9272 107.442 26.2772ZM102.739 19.2801C101.363 19.2801 100.245 19.586 99.3843 20.1977C98.524 20.7904 97.9696 21.5264 97.7211 22.4058H107.414C107.318 21.45 106.859 20.6948 106.037 20.1404C105.234 19.5669 104.135 19.2801 102.739 19.2801ZM130.806 25.3882C130.711 26.6308 130.309 27.7014 129.602 28.6C128.913 29.4985 127.958 30.1867 126.734 30.6647C125.511 31.1235 124.058 31.3529 122.375 31.3529C120.616 31.3529 119.039 31.0757 117.644 30.5213C116.267 29.9478 115.177 29.1161 114.374 28.0264C113.591 26.9176 113.199 25.5507 113.199 23.9257C113.199 22.3007 113.591 20.9338 114.374 19.825C115.177 18.7161 116.267 17.875 117.644 17.3014C119.039 16.7279 120.616 16.4411 122.375 16.4411C124.058 16.4411 125.501 16.6801 126.705 17.158C127.91 17.6169 128.856 18.286 129.544 19.1654C130.252 20.0448 130.663 21.1058 130.777 22.3485H127.365C127.04 21.3926 126.438 20.647 125.558 20.1117C124.679 19.5764 123.618 19.3088 122.375 19.3088C121.381 19.3088 120.473 19.4808 119.651 19.825C118.848 20.1691 118.198 20.6852 117.701 21.3735C117.223 22.0426 116.984 22.8933 116.984 23.9257C116.984 24.9389 117.223 25.7897 117.701 26.4779C118.179 27.147 118.829 27.6536 119.651 27.9978C120.473 28.3228 121.381 28.4853 122.375 28.4853C123.713 28.4853 124.803 28.2176 125.644 27.6823C126.505 27.147 127.088 26.3823 127.394 25.3882H130.806ZM132.542 16.7566H143.612V19.6529H132.542V16.7566ZM136.213 12.8566H139.941V31.0088H136.213V12.8566ZM145.98 16.7566H149.708V31.0088H145.98V16.7566ZM155.185 19.825C154.115 19.825 153.187 20.0352 152.404 20.4558C151.62 20.8573 150.989 21.3544 150.511 21.947C150.033 22.5397 149.698 23.1132 149.507 23.6676L149.479 22.0904C149.498 21.861 149.574 21.5264 149.708 21.0867C149.842 20.6279 150.043 20.1404 150.31 19.6242C150.578 19.0889 150.932 18.5823 151.371 18.1044C151.811 17.6073 152.346 17.2058 152.977 16.8999C153.608 16.5941 154.344 16.4411 155.185 16.4411V19.825ZM164.43 31.3242C163.015 31.3242 161.724 31.0183 160.558 30.4066C159.411 29.7757 158.494 28.9058 157.805 27.797C157.136 26.6691 156.802 25.3691 156.802 23.897C156.802 22.3867 157.146 21.0772 157.834 19.9683C158.522 18.8595 159.449 17.9992 160.616 17.3874C161.801 16.7566 163.139 16.4411 164.63 16.4411C166.274 16.4411 167.594 16.7757 168.588 17.4448C169.601 18.0948 170.337 18.9838 170.796 20.1117C171.255 21.2397 171.484 22.5014 171.484 23.897C171.484 24.7382 171.35 25.5985 171.083 26.4779C170.815 27.3382 170.404 28.1411 169.849 28.8867C169.295 29.6132 168.569 30.2058 167.67 30.6647C166.771 31.1044 165.691 31.3242 164.43 31.3242ZM165.634 28.4566C166.762 28.4566 167.737 28.2654 168.559 27.8831C169.381 27.5007 170.012 26.9654 170.452 26.2772C170.891 25.5889 171.111 24.7955 171.111 23.897C171.111 22.922 170.882 22.1 170.423 21.4308C169.983 20.7426 169.352 20.2264 168.53 19.8823C167.727 19.5191 166.762 19.3375 165.634 19.3375C164.047 19.3375 162.814 19.758 161.935 20.5992C161.055 21.4213 160.616 22.5205 160.616 23.897C160.616 24.8147 160.826 25.6176 161.246 26.3058C161.667 26.975 162.25 27.5007 162.996 27.8831C163.76 28.2654 164.64 28.4566 165.634 28.4566ZM171.111 16.7566H174.839V31.0088H171.369C171.369 31.0088 171.341 30.8272 171.283 30.4639C171.245 30.0816 171.207 29.6036 171.169 29.0301C171.13 28.4566 171.111 27.8926 171.111 27.3382V16.7566ZM182.835 12.4551H202.392V15.6382H182.835V12.4551ZM190.721 15.2367H194.535V31.0088H190.721V15.2367ZM215.343 26.2772H218.957C218.804 27.2522 218.393 28.122 217.723 28.8867C217.073 29.6514 216.185 30.2536 215.057 30.6933C213.929 31.1331 212.552 31.3529 210.927 31.3529C209.111 31.3529 207.505 31.0661 206.11 30.4926C204.714 29.9 203.624 29.0492 202.84 27.9404C202.057 26.8316 201.665 25.4933 201.665 23.9257C201.665 22.358 202.047 21.0198 202.812 19.911C203.576 18.783 204.637 17.9227 205.995 17.3301C207.371 16.7374 208.977 16.4411 210.812 16.4411C212.686 16.4411 214.244 16.7374 215.487 17.3301C216.729 17.9227 217.647 18.8213 218.24 20.0257C218.851 21.211 219.11 22.7308 219.014 24.5853H205.421C205.517 25.3117 205.785 25.9713 206.224 26.5639C206.683 27.1566 207.295 27.625 208.06 27.9691C208.843 28.3132 209.771 28.4853 210.841 28.4853C212.026 28.4853 213.011 28.2845 213.795 27.8831C214.598 27.4625 215.114 26.9272 215.343 26.2772ZM210.64 19.2801C209.264 19.2801 208.146 19.586 207.285 20.1977C206.425 20.7904 205.871 21.5264 205.622 22.4058H215.315C215.219 21.45 214.76 20.6948 213.938 20.1404C213.135 19.5669 212.036 19.2801 210.64 19.2801ZM238.707 25.3882C238.611 26.6308 238.21 27.7014 237.503 28.6C236.814 29.4985 235.859 30.1867 234.635 30.6647C233.411 31.1235 231.959 31.3529 230.276 31.3529C228.517 31.3529 226.94 31.0757 225.545 30.5213C224.168 29.9478 223.078 29.1161 222.275 28.0264C221.492 26.9176 221.1 25.5507 221.1 23.9257C221.1 22.3007 221.492 20.9338 222.275 19.825C223.078 18.7161 224.168 17.875 225.545 17.3014C226.94 16.7279 228.517 16.4411 230.276 16.4411C231.959 16.4411 233.402 16.6801 234.606 17.158C235.811 17.6169 236.757 18.286 237.445 19.1654C238.153 20.0448 238.564 21.1058 238.678 22.3485H235.266C234.941 21.3926 234.339 20.647 233.459 20.1117C232.58 19.5764 231.519 19.3088 230.276 19.3088C229.282 19.3088 228.374 19.4808 227.552 19.825C226.749 20.1691 226.099 20.6852 225.602 21.3735C225.124 22.0426 224.885 22.8933 224.885 23.9257C224.885 24.9389 225.124 25.7897 225.602 26.4779C226.08 27.147 226.73 27.6536 227.552 27.9978C228.374 28.3228 229.282 28.4853 230.276 28.4853C231.614 28.4853 232.704 28.2176 233.545 27.6823C234.406 27.147 234.989 26.3823 235.295 25.3882H238.707ZM241.447 16.7566H245.175V31.0088H241.447V16.7566ZM251.799 16.4411C252.679 16.4411 253.491 16.5558 254.237 16.7852C254.982 17.0147 255.632 17.3683 256.187 17.8463C256.741 18.3242 257.171 18.936 257.477 19.6816C257.783 20.408 257.936 21.2779 257.936 22.2911V31.0088H254.208V22.9507C254.208 21.7463 253.912 20.8669 253.319 20.3125C252.746 19.7389 251.799 19.4522 250.48 19.4522C249.486 19.4522 248.587 19.6433 247.785 20.0257C246.982 20.408 246.332 20.8955 245.835 21.4882C245.337 22.0617 245.051 22.6639 244.974 23.2948L244.946 21.8323C245.041 21.1632 245.261 20.5132 245.605 19.8823C245.949 19.2514 246.408 18.6779 246.982 18.1617C247.574 17.6264 248.272 17.2058 249.075 16.8999C249.878 16.5941 250.786 16.4411 251.799 16.4411ZM269.732 31.3529C267.935 31.3529 266.349 31.0661 264.972 30.4926C263.615 29.9191 262.554 29.0875 261.789 27.9978C261.024 26.8889 260.642 25.5316 260.642 23.9257C260.642 22.3198 261.024 20.9625 261.789 19.8536C262.554 18.7257 263.615 17.875 264.972 17.3014C266.349 16.7279 267.935 16.4411 269.732 16.4411C271.529 16.4411 273.097 16.7279 274.435 17.3014C275.793 17.875 276.854 18.7257 277.618 19.8536C278.383 20.9625 278.765 22.3198 278.765 23.9257C278.765 25.5316 278.383 26.8889 277.618 27.9978C276.854 29.0875 275.793 29.9191 274.435 30.4926C273.097 31.0661 271.529 31.3529 269.732 31.3529ZM269.732 28.4853C270.726 28.4853 271.615 28.3132 272.399 27.9691C273.202 27.6058 273.833 27.0897 274.292 26.4205C274.751 25.7323 274.98 24.9007 274.98 23.9257C274.98 22.9507 274.751 22.1191 274.292 21.4308C273.833 20.7235 273.212 20.1882 272.428 19.825C271.644 19.4617 270.746 19.2801 269.732 19.2801C268.738 19.2801 267.84 19.4617 267.037 19.825C266.234 20.1882 265.593 20.7139 265.115 21.4022C264.657 22.0904 264.427 22.9316 264.427 23.9257C264.427 24.9007 264.657 25.7323 265.115 26.4205C265.574 27.0897 266.205 27.6058 267.008 27.9691C267.811 28.3132 268.719 28.4853 269.732 28.4853ZM281.808 11.0213H285.536V31.0088H281.808V11.0213ZM297.709 31.3529C295.912 31.3529 294.325 31.0661 292.948 30.4926C291.591 29.9191 290.53 29.0875 289.765 27.9978C289.001 26.8889 288.618 25.5316 288.618 23.9257C288.618 22.3198 289.001 20.9625 289.765 19.8536C290.53 18.7257 291.591 17.875 292.948 17.3014C294.325 16.7279 295.912 16.4411 297.709 16.4411C299.506 16.4411 301.073 16.7279 302.412 17.3014C303.769 17.875 304.83 18.7257 305.595 19.8536C306.359 20.9625 306.742 22.3198 306.742 23.9257C306.742 25.5316 306.359 26.8889 305.595 27.9978C304.83 29.0875 303.769 29.9191 302.412 30.4926C301.073 31.0661 299.506 31.3529 297.709 31.3529ZM297.709 28.4853C298.703 28.4853 299.592 28.3132 300.376 27.9691C301.179 27.6058 301.809 27.0897 302.268 26.4205C302.727 25.7323 302.957 24.9007 302.957 23.9257C302.957 22.9507 302.727 22.1191 302.268 21.4308C301.809 20.7235 301.188 20.1882 300.404 19.825C299.621 19.4617 298.722 19.2801 297.709 19.2801C296.715 19.2801 295.816 19.4617 295.013 19.825C294.21 20.1882 293.57 20.7139 293.092 21.4022C292.633 22.0904 292.404 22.9316 292.404 23.9257C292.404 24.9007 292.633 25.7323 293.092 26.4205C293.551 27.0897 294.182 27.6058 294.984 27.9691C295.787 28.3132 296.696 28.4853 297.709 28.4853ZM316.609 28.8294C315.061 28.8294 313.694 28.6 312.509 28.1411C311.343 27.6632 310.434 26.9654 309.784 26.0478C309.134 25.1301 308.809 24.0213 308.809 22.7213C308.809 21.4404 309.125 20.3316 309.756 19.3948C310.387 18.458 311.285 17.7316 312.451 17.2154C313.637 16.6992 315.023 16.4411 316.609 16.4411C317.049 16.4411 317.47 16.4698 317.871 16.5272C318.292 16.5845 318.703 16.661 319.104 16.7566L326.302 16.7852V19.5955C325.327 19.6147 324.333 19.5 323.32 19.2514C322.326 18.9838 321.446 18.697 320.682 18.3911L320.596 18.1904C321.246 18.4963 321.857 18.8786 322.431 19.3375C323.004 19.7772 323.463 20.2933 323.807 20.886C324.171 21.4595 324.352 22.1286 324.352 22.8933C324.352 24.136 324.037 25.2066 323.406 26.1051C322.775 26.9845 321.876 27.6632 320.71 28.1411C319.563 28.6 318.196 28.8294 316.609 28.8294ZM321.398 36.8875V36.1992C321.398 35.3198 321.112 34.7081 320.538 34.3639C319.984 34.0198 319.219 33.8478 318.244 33.8478H313.799C312.939 33.8478 312.212 33.7809 311.62 33.647C311.046 33.5132 310.587 33.322 310.243 33.0735C309.899 32.825 309.651 32.5286 309.498 32.1845C309.345 31.8595 309.268 31.5058 309.268 31.1235C309.268 30.3588 309.517 29.7853 310.014 29.4029C310.511 29.0014 311.18 28.7338 312.021 28.6C312.862 28.4661 313.79 28.4375 314.803 28.5139L316.609 28.8294C315.405 28.8676 314.507 28.9728 313.914 29.1448C313.34 29.2978 313.054 29.6132 313.054 30.0911C313.054 30.3779 313.168 30.6073 313.398 30.7794C313.627 30.9323 313.952 31.0088 314.373 31.0088H319.047C320.328 31.0088 321.418 31.1426 322.316 31.4103C323.234 31.697 323.932 32.1654 324.409 32.8154C324.887 33.4845 325.126 34.3926 325.126 35.5397V36.8875H321.398ZM316.609 26.1338C317.432 26.1338 318.148 26 318.76 25.7323C319.391 25.4647 319.879 25.0823 320.223 24.5853C320.567 24.0691 320.739 23.4573 320.739 22.75C320.739 22.0235 320.567 21.4022 320.223 20.886C319.879 20.3698 319.401 19.9779 318.789 19.7102C318.177 19.4235 317.451 19.2801 316.609 19.2801C315.787 19.2801 315.061 19.4235 314.43 19.7102C313.799 19.9779 313.312 20.3698 312.968 20.886C312.623 21.4022 312.451 22.0235 312.451 22.75C312.451 23.4573 312.623 24.0691 312.968 24.5853C313.312 25.0823 313.79 25.4647 314.401 25.7323C315.032 26 315.768 26.1338 316.609 26.1338ZM333.01 10.5051V13.7742H328.679V10.5051H333.01ZM328.966 16.7566H332.694V31.0088H328.966V16.7566ZM343.35 31.3242C341.935 31.3242 340.644 31.0183 339.478 30.4066C338.331 29.7757 337.414 28.9058 336.725 27.797C336.056 26.6691 335.722 25.3691 335.722 23.897C335.722 22.3867 336.066 21.0772 336.754 19.9683C337.442 18.8595 338.369 17.9992 339.536 17.3874C340.721 16.7566 342.059 16.4411 343.55 16.4411C345.194 16.4411 346.514 16.7757 347.508 17.4448C348.521 18.0948 349.257 18.9838 349.716 20.1117C350.175 21.2397 350.404 22.5014 350.404 23.897C350.404 24.7382 350.27 25.5985 350.003 26.4779C349.735 27.3382 349.324 28.1411 348.769 28.8867C348.215 29.6132 347.489 30.2058 346.59 30.6647C345.692 31.1044 344.611 31.3242 343.35 31.3242ZM344.554 28.4566C345.682 28.4566 346.657 28.2654 347.479 27.8831C348.301 27.5007 348.932 26.9654 349.372 26.2772C349.811 25.5889 350.031 24.7955 350.031 23.897C350.031 22.922 349.802 22.1 349.343 21.4308C348.903 20.7426 348.272 20.2264 347.45 19.8823C346.647 19.5191 345.682 19.3375 344.554 19.3375C342.967 19.3375 341.734 19.758 340.855 20.5992C339.975 21.4213 339.536 22.5205 339.536 23.897C339.536 24.8147 339.746 25.6176 340.167 26.3058C340.587 26.975 341.17 27.5007 341.916 27.8831C342.681 28.2654 343.56 28.4566 344.554 28.4566ZM350.031 16.7566H353.759V31.0088H350.289C350.289 31.0088 350.261 30.8272 350.203 30.4639C350.165 30.0816 350.127 29.6036 350.089 29.0301C350.05 28.4566 350.031 27.8926 350.031 27.3382V16.7566Z" fill="white"/>
<path d="M18.0135 31.2435L18.0113 31.2624L17.9972 31.2543L18.0135 31.2435ZM2.32944 30.8601L2.60137 31.4984C3.65903 33.9831 5.16753 36.2505 7.05057 38.1861L7.39442 38.5392L17.9978 31.2532C16.263 30.2536 14.3478 29.6067 12.3622 29.3494C10.3766 29.0921 8.35973 29.2296 6.42739 29.754L2.32944 30.8601ZM18.0119 31.2613L17.051 44.091L17.5289 44.2104C20.1491 44.8638 22.8677 45.0267 25.547 44.6903L26.2355 44.6042L25.1288 40.5071C24.6096 38.5735 23.7136 36.7613 22.4922 35.1748C21.2708 33.5883 19.748 32.2586 18.0113 31.2624L18.0119 31.2613ZM14.8249 2.33217L14.1876 2.60468C11.7024 3.6616 9.43452 5.16994 7.49893 7.05329L7.14587 7.3971L14.4399 17.9867C15.4361 16.2531 16.0805 14.34 16.3364 12.357C16.5922 10.374 16.4545 8.35992 15.931 6.43021L14.8249 2.33217ZM1.59424 17.0538L1.47487 17.5317C0.821177 20.1523 0.658882 22.871 0.996053 25.5505L1.08116 26.2384L5.17911 25.1324C7.1099 24.614 8.91956 23.7197 10.5043 22.5011C12.0893 21.2822 13.4182 19.7629 14.4151 18.03L1.59424 17.0538ZM14.4399 17.9867L14.4151 18.03L14.4712 18.035L14.4399 17.9867ZM29.7503 39.259L30.8564 43.357L31.4948 43.085C33.9793 42.0275 36.2468 40.5188 38.1824 38.6358L38.5353 38.2921L31.2531 27.6818C30.2523 29.4176 29.6043 31.3339 29.3466 33.3207C29.089 35.3078 29.2264 37.3259 29.7513 39.2595L29.7503 39.259ZM44.2064 28.1573C44.8598 25.5371 45.0225 22.8186 44.6863 20.1391L44.6001 19.4507L40.5031 20.5573C38.5681 21.0769 36.7546 21.9738 35.1672 23.1965C33.5796 24.419 32.2496 25.9434 31.2531 27.6818L44.0869 28.6354L44.2064 28.1573ZM27.6851 14.4355L27.671 14.4274L27.6705 14.4458L27.6851 14.4355ZM43.3534 14.8286L43.0808 14.1913C42.024 11.7061 40.5157 9.43823 38.6323 7.5025L38.2886 7.14953L27.6851 14.4355C29.4203 15.4346 31.3356 16.0812 33.3213 16.3383C35.3069 16.5954 37.3238 16.4579 39.2561 15.9336L43.3534 14.8286ZM27.671 14.4274L28.632 1.59772L28.1539 1.47825C25.5336 0.824608 22.8148 0.662223 20.1352 0.99934L19.4474 1.08448L20.5535 5.18252C21.073 7.11611 21.9692 8.92813 23.1905 10.5146C24.4119 12.101 25.9345 13.4307 27.671 14.4274ZM27.6716 14.4465L27.6525 14.4571C23.6315 16.763 19.085 17.9958 14.4499 18.037L14.4611 18.055C16.7674 22.076 18.0003 26.6227 18.0411 31.2579L18.0585 31.2478C22.0792 28.941 26.6261 27.7081 31.2612 27.6678L31.2517 27.6493C28.9449 23.6289 27.7117 19.0825 27.671 14.4475L27.6716 14.4465Z" fill="#EFEFEF"/>
</svg>
