<svg width="671" height="671" viewBox="0 0 671 671" fill="none" xmlns="http://www.w3.org/2000/svg">
<path d="M399.207 202.772L399.22 202.484L399.442 202.59L399.207 202.772ZM637.439 190.59L632.584 181.225C613.697 144.766 588.225 112.12 557.454 84.9338L551.836 79.9762L399.434 202.608C426.883 215.772 456.662 223.383 487.062 225.006C517.461 226.629 547.882 222.229 576.577 212.061L637.439 190.59ZM399.211 202.501L399.059 6.88335L391.676 5.62084C351.2 -1.27879 309.796 -0.628838 269.561 7.54419L259.221 9.63979L280.7 70.4874C290.791 99.2077 306.455 125.656 326.793 148.308C347.132 170.959 371.746 189.372 399.22 202.484L399.211 202.501ZM480.724 637.449L490.073 632.586C526.54 613.71 559.193 588.239 586.378 557.464L591.337 551.847L468.598 399.663C455.485 427.09 447.909 456.834 446.306 487.194C444.702 517.552 449.101 547.93 459.252 576.586L480.724 637.449ZM664.427 399.068L665.688 391.685C672.592 351.204 671.933 309.798 663.747 269.56L661.667 259.228L600.806 280.699C572.127 290.774 545.717 306.408 523.087 326.703C500.457 347.001 482.052 371.562 468.926 398.978L664.427 399.068ZM468.598 399.663L468.926 398.978L468.069 398.967L468.598 399.663ZM212.064 94.7143L190.592 33.8521L181.226 38.7084C144.77 57.5919 112.124 83.0671 84.938 113.838L79.9818 119.453L202.564 271.963C215.746 244.498 223.372 214.702 224.999 184.284C226.625 153.861 222.226 123.422 212.05 94.7073L212.064 94.7143ZM5.6282 279.617C-1.27085 320.093 -0.619175 361.496 7.55281 401.735L9.64906 412.073L70.4957 390.594C99.2369 380.496 125.702 364.818 148.367 344.459C171.034 324.101 189.451 299.463 202.564 271.963L6.89185 272.232L5.6282 279.617ZM271.859 468.702L272.082 468.809L272.068 468.529L271.859 468.702ZM33.8542 480.719L38.7183 490.069C57.5934 526.536 83.0624 559.189 113.84 586.376L119.455 591.334L271.859 468.702C244.404 455.545 214.623 447.939 184.223 446.319C153.823 444.7 123.402 449.099 94.7073 459.265L33.8542 480.719ZM272.082 468.809L272.232 664.426L279.618 665.689C320.096 672.593 361.503 671.935 401.741 663.749L412.072 661.669L390.6 600.807C380.505 572.087 364.839 545.643 344.501 522.991C324.162 500.34 299.552 481.927 272.082 468.809ZM272.05 468.52L272.328 468.338C330.646 428.763 398.163 404.855 468.39 398.912L468.199 398.652C428.619 340.335 404.709 272.815 398.772 202.586L398.52 202.76C340.208 242.347 272.686 266.256 202.457 272.186L202.623 272.455C242.21 330.762 266.123 398.278 272.059 468.503L272.05 468.52Z" fill="url(#paint0_linear_6022_22)"/>
<defs>
<linearGradient id="paint0_linear_6022_22" x1="21.7458" y1="446.398" x2="754.935" y2="254.634" gradientUnits="userSpaceOnUse">
<stop stop-color="#0147FF"/>
<stop offset="1" stop-color="#0147FF" stop-opacity="0"/>
</linearGradient>
</defs>
</svg>
